<svg width="16" height="24" viewBox="0 0 16 24" fill="none" xmlns="http://www.w3.org/2000/svg">
<path d="M4 4C4 1.79087 5.79087 0 8 0C10.2091 0 12 1.79087 12 4V12C12 14.2092 10.2091 16 8 16C5.79087 16 4 14.2092 4 12V4Z" fill="white"/>
<path d="M2 11.5238C2 10.9715 1.55228 10.5238 1 10.5238C0.447715 10.5238 0 10.9715 0 11.5238V12C0 16.0796 3.05369 19.446 7 19.938V22H5C4.44772 22 4 22.4477 4 23C4 23.5523 4.44772 24 5 24H11C11.5523 24 12 23.5523 12 23C12 22.4477 11.5523 22 11 22H9V19.938C12.9463 19.446 16 16.0796 16 12V11.5238C16 10.9715 15.5523 10.5238 15 10.5238C14.4477 10.5238 14 10.9715 14 11.5238V12C14 15.3136 11.3137 18 8 18C4.68629 18 2 15.3136 2 12V11.5238Z" fill="white"/>
</svg>
