<svg width="3" height="12" viewBox="0 0 3 12" fill="none" xmlns="http://www.w3.org/2000/svg">
<path d="M2.57143 1.28571C2.57143 1.99579 1.99579 2.57143 1.28571 2.57143C0.575634 2.57143 0 1.99579 0 1.28571C0 0.575634 0.575634 0 1.28571 0C1.99579 0 2.57143 0.575634 2.57143 1.28571Z" fill="#4D63E9"/>
<path d="M2.57143 6C2.57143 6.71008 1.99579 7.28571 1.28571 7.28571C0.575634 7.28571 0 6.71008 0 6C0 5.28992 0.575634 4.71429 1.28571 4.71429C1.99579 4.71429 2.57143 5.28992 2.57143 6Z" fill="#4D63E9"/>
<path d="M2.57143 10.7143C2.57143 11.4244 1.99579 12 1.28571 12C0.575634 12 0 11.4244 0 10.7143C0 10.0042 0.575634 9.42857 1.28571 9.42857C1.99579 9.42857 2.57143 10.0042 2.57143 10.7143Z" fill="#4D63E9"/>
</svg>
