<svg width="16" height="16" viewBox="0 0 16 16" fill="none" xmlns="http://www.w3.org/2000/svg">
<path fill-rule="evenodd" clip-rule="evenodd" d="M3.75 0C4.16421 0 4.5 0.335786 4.5 0.75V2H11.5V0.75C11.5 0.335786 11.8358 0 12.25 0C12.6642 0 13 0.335786 13 0.75V2H13.25C14.7688 2 16 3.23122 16 4.75V13.25C16 14.7688 14.7688 16 13.25 16H2.75C1.23122 16 0 14.7688 0 13.25V4.75C0 3.23122 1.23122 2 2.75 2H3V0.75C3 0.335786 3.33579 0 3.75 0ZM2.75 5.5C2.05964 5.5 1.5 6.05964 1.5 6.75V13.25C1.5 13.9404 2.05964 14.5 2.75 14.5H13.25C13.9404 14.5 14.5 13.9404 14.5 13.25V6.75C14.5 6.05964 13.9404 5.5 13.25 5.5H2.75Z" fill="#1A1E42" fill-opacity="0.6"/>
</svg>
