<svg width="18" height="42" viewBox="0 0 18 42" fill="none" xmlns="http://www.w3.org/2000/svg">
<g opacity="0.3">
<path d="M5.63623 10.5602V9.59439C5.63623 6.27311 7.96272 7.33695 7.96272 2.27431C7.96272 1.41804 8.51572 1 9.19718 1C9.87865 1 10.4316 1.59391 10.4316 2.27431C10.4316 7.23028 12.5934 6.25581 12.5934 9.64628V10.5602" stroke="#1A1E42" stroke-miterlimit="10"/>
<path d="M2.38528 15.462H15.8806C16.6459 15.462 17.2659 16.102 17.2659 16.892V38.3015C17.2659 39.7892 16.0957 41.0001 14.6517 41.0001H3.61416C2.17302 41.0001 1 39.7921 1 38.3015V16.892C1 16.102 1.62002 15.462 2.38528 15.462Z" stroke="#1A1E42" stroke-miterlimit="10"/>
<path d="M3.11696 12.6536H14.9617C15.3946 12.6536 15.7465 13.0169 15.7465 13.4638V15.1763C15.7465 15.332 15.6236 15.4588 15.4728 15.4588H2.60586C2.45504 15.4588 2.33216 15.332 2.33216 15.1763V13.4638C2.33216 13.0169 2.68406 12.6536 3.11696 12.6536Z" stroke="#1A1E42" stroke-miterlimit="10"/>
<path d="M4.69206 10.5605H13.3892C13.7131 10.5605 13.9757 10.8316 13.9757 11.166V12.6536H4.10555V11.166C4.10555 10.8316 4.36809 10.5605 4.69206 10.5605Z" stroke="#1A1E42" stroke-miterlimit="10"/>
</g>
</svg>
