<svg width="47" height="49" viewBox="0 0 47 49" fill="none" xmlns="http://www.w3.org/2000/svg">
<path d="M5.34316 42.7626H2.75842C1.78666 42.7626 1 41.9835 1 41.0212V2.74147C1 1.77908 1.78666 1 2.75842 1H26.1963M26.1963 1L33.6795 8.41108H27.7366C26.8871 8.41108 26.1963 7.72693 26.1963 6.88566L26.1963 1ZM6.51659 37.4235H8.28823M6.51659 39.908H8.28823M6.51659 42.3893H8.28823M6.77766 20.3626H13.3056M6.77766 23.6881H18.2768M6.77766 27.4657H18.2768M25.909 44.3274C25.909 40.5171 29.0293 37.427 32.8766 37.427C36.724 37.427 39.8442 40.5171 39.8442 44.3274M39.1005 40.877L40.4954 38.0128C41.8373 35.2565 41.2853 31.9635 39.117 29.7833C38.8625 29.5116 38.5915 29.2432 38.3172 28.9912M35.3622 37.787C36.4992 35.417 36.1918 32.6149 34.5656 30.5429M34.017 30.3302L30.986 34.7591L22.5542 29.0961L34.0071 12.372L42.4389 18.0351L37.8875 24.6802M40.6143 16.5783L42.7826 13.4096L38.2147 10.3424L36.0464 13.5111M12.0331 42.3896H18.2768M28.7317 38.7821H16.2969M26.19 42.3896H23.8697M6.86691 11.8778H9.43843V16.1235H6.86691V11.8778ZM12.0331 9.68774H14.6046V16.1201H12.0331V9.68774ZM16.991 7.70066H19.5625V16.12H16.991V7.70066ZM6.36124 34.3857H10.9226V45.7413C10.9226 46.9885 9.90122 48 8.6419 48C7.38258 48 6.36124 46.9885 6.36124 45.7413V34.3857ZM6.25217 31.7081H11.0283C11.5303 31.7081 11.9373 32.1111 11.9373 32.6083V33.4855C11.9373 33.9827 11.5303 34.3857 11.0283 34.3857H6.25217C5.75016 34.3857 5.34321 33.9827 5.34321 33.4855V32.6083C5.34321 32.1111 5.75016 31.7081 6.25217 31.7081ZM23.8697 44.3732H41.8869V47.8136H23.8697V44.3732ZM38.8393 27.0664C38.8393 29.0008 37.2559 30.5689 35.3026 30.5689C33.3494 30.5689 31.766 29.0008 31.766 27.0664C31.766 25.1319 33.3494 23.5638 35.3026 23.5638C37.2559 23.5638 38.8393 25.1319 38.8393 27.0664ZM36.3075 27.0664C36.3075 27.616 35.8576 28.0615 35.3027 28.0615C34.7477 28.0615 34.2979 27.616 34.2979 27.0664C34.2979 26.5168 34.7477 26.0713 35.3027 26.0713C35.8576 26.0713 36.3075 26.5168 36.3075 27.0664ZM25.1699 30.8529L28.3706 33.0024L26.2003 36.1723L22.9995 34.0229L25.1699 30.8529ZM38.8355 6.84126L45.6146 11.3936C45.8895 11.5783 45.9613 11.9487 45.7748 12.2211L44.7571 13.9467C44.5707 14.219 44.1966 14.2901 43.9216 14.1054L37.1426 9.55303C36.8676 9.36837 36.7959 8.99791 36.9823 8.72558L38 7C38.1865 6.72767 38.5605 6.6566 38.8355 6.84126Z" stroke="url(#paint0_linear_1_21753)" stroke-width="1.5" stroke-linecap="round" stroke-linejoin="round"/>
<defs>
<linearGradient id="paint0_linear_1_21753" x1="-10.0387" y1="6.14762" x2="56.0136" y2="13.4057" gradientUnits="userSpaceOnUse">
<stop stop-color="#4D63E9"/>
<stop offset="1" stop-color="#A5CBF2"/>
</linearGradient>
</defs>
</svg>
