<svg width="30" height="30" viewBox="0 0 30 30" fill="none" xmlns="http://www.w3.org/2000/svg">
<g opacity="0.3">
<path d="M23.1969 12.3525C24.4355 11.5522 25.0119 10.2694 24.4843 9.48716C23.9567 8.70493 22.5248 8.71953 21.2862 9.51978C20.0476 10.32 19.4712 11.6029 19.9988 12.3851C20.5264 13.1673 21.9582 13.1527 23.1969 12.3525Z" stroke="#1A1E42" stroke-miterlimit="10" stroke-linecap="round"/>
<path d="M14.5554 26.2451C15.0732 25.8377 14.9695 24.8703 14.3239 24.0843C13.6782 23.2984 12.7351 22.9916 12.2173 23.399C11.6995 23.8064 11.8032 24.7738 12.4488 25.5598C13.0945 26.3457 14.0376 26.6525 14.5554 26.2451Z" stroke="#1A1E42" stroke-miterlimit="10" stroke-linecap="round"/>
<path d="M16.901 11.4053C17.8875 10.3464 17.3281 8.27519 15.6516 6.779C13.975 5.28281 11.8162 4.92827 10.8297 5.98711C9.84318 7.04594 10.4026 9.11719 12.0791 10.6134C13.7556 12.1096 15.9145 12.4641 16.901 11.4053Z" stroke="#1A1E42" stroke-miterlimit="10" stroke-linecap="round"/>
<path d="M12.4617 17.8966C12.5827 16.07 10.8454 14.4728 8.58128 14.3291C6.31714 14.1854 4.3836 15.5497 4.26258 17.3763C4.14156 19.2028 5.8789 20.8001 8.14303 20.9438C10.4072 21.0874 12.3407 19.7232 12.4617 17.8966Z" stroke="#1A1E42" stroke-miterlimit="10" stroke-linecap="round"/>
<path d="M29.0435 15.0853C29.0435 7.3065 22.7657 1.01799 15.0217 1.03952C7.27774 1.06105 0.999999 7.38448 0.999999 15.1633C1 22.9421 7.27774 29.2306 15.0217 29.2091C22.7657 29.1875 29.0435 22.8641 29.0435 15.0853Z" stroke="#1A1E42" stroke-miterlimit="10" stroke-linecap="round"/>
<path d="M22.8765 22.9677C23.9066 20.9892 23.8362 18.9337 22.7193 18.3768C21.6024 17.8198 19.8619 18.9722 18.8319 20.9507C17.8018 22.9293 17.8722 24.9847 18.9891 25.5417C20.106 26.0987 21.8465 24.9462 22.8765 22.9677Z" stroke="#1A1E42" stroke-miterlimit="10" stroke-linecap="round"/>
<path d="M20.0435 6.07031V6.36575" stroke="#1A1E42" stroke-miterlimit="10" stroke-linecap="round"/>
<path d="M8.0293 9.10938V9.40482" stroke="#1A1E42" stroke-miterlimit="10" stroke-linecap="round"/>
<path d="M16.4287 15.9121V16.2076" stroke="#1A1E42" stroke-miterlimit="10" stroke-linecap="round"/>
<path d="M7.12109 22.7871V23.0848" stroke="#1A1E42" stroke-miterlimit="10" stroke-linecap="round"/>
<path d="M25.0435 16.0703V16.368" stroke="#1A1E42" stroke-miterlimit="10" stroke-linecap="round"/>
</g>
</svg>
