<svg width="18" height="17" viewBox="0 0 18 17" fill="none" xmlns="http://www.w3.org/2000/svg">
<path fill-rule="evenodd" clip-rule="evenodd" d="M0 0.75C0 0.335786 0.335786 0 0.75 0H17.25C17.6642 0 18 0.335786 18 0.75C18 1.16421 17.6642 1.5 17.25 1.5H17V10.25C17 11.7688 15.7688 13 14.25 13H13.1775L13.9759 16.0606C14.0805 16.4614 13.8403 16.8711 13.4395 16.9757C13.0387 17.0802 12.629 16.8401 12.5245 16.4393L12.4099 15.9999H5.5905L5.4759 16.4393C5.37134 16.8401 4.96167 17.0802 4.56087 16.9757C4.16007 16.8711 3.91991 16.4614 4.02447 16.0606L4.82289 13H3.75C2.23122 13 1 11.7688 1 10.25V1.5H0.75C0.335786 1.5 0 1.16421 0 0.75ZM6.37309 13L5.9818 14.4999H12.0186L11.6273 13H6.37309ZM12.25 3C12.6642 3 13 3.33579 13 3.75V9.25C13 9.66421 12.6642 10 12.25 10C11.8358 10 11.5 9.66421 11.5 9.25V3.75C11.5 3.33579 11.8358 3 12.25 3ZM5.75 7C6.16421 7 6.5 7.33579 6.5 7.75V9.25C6.5 9.66421 6.16421 10 5.75 10C5.33579 10 5 9.66421 5 9.25V7.75C5 7.33579 5.33579 7 5.75 7ZM9.75 5.75C9.75 5.33579 9.41421 5 9 5C8.58579 5 8.25 5.33579 8.25 5.75V9.25C8.25 9.66421 8.58579 10 9 10C9.41421 10 9.75 9.66421 9.75 9.25V5.75Z" fill="#1A1E42" fill-opacity="0.6"/>
</svg>
