<svg width="14" height="16" viewBox="0 0 14 16" fill="none" xmlns="http://www.w3.org/2000/svg">
<path d="M12.9007 0.0799736L2.5007 5.48997V3.74997C2.5007 3.33997 2.1607 2.99997 1.7507 2.99997C1.3407 2.99997 1.0007 3.33997 1.0007 3.74997V6.26997L0.400696 6.57997C0.0306962 6.76997 -0.109304 7.21997 0.0806962 7.58997C0.250696 7.92997 0.650696 8.06997 1.0007 7.94997V14.49H0.750696C0.340696 14.49 0.00069625 14.83 0.00069625 15.24C0.00069625 15.65 0.340696 15.99 0.750696 15.99H4.2507C4.6607 15.99 5.0007 15.65 5.0007 15.24V11.74C5.0007 11.33 5.3407 10.99 5.7507 10.99H8.2407C8.6507 10.99 8.9907 11.33 8.9907 11.74V15.24C8.9907 15.65 9.3307 15.99 9.7407 15.99H12.0007C12.5507 15.99 13.0007 15.54 13.0007 14.99V1.72997L13.6007 1.41997C13.9707 1.22997 14.1107 0.779974 13.9207 0.409974C13.7307 0.0399736 13.2807 -0.100026 12.9107 0.0899736L12.9007 0.0799736ZM11.6207 7.98997H10.3707V9.23997H9.1507V7.98997H7.9007V6.76997H9.1507V5.51997H10.3707V6.76997H11.6207V7.98997Z" fill="#1A1E42" fill-opacity="0.6"/>
</svg>
