<svg width="24" height="22" viewBox="0 0 24 22" fill="none" xmlns="http://www.w3.org/2000/svg">
<path fill-rule="evenodd" clip-rule="evenodd" d="M12 0C9.01876 0 6.09257 0.246196 3.23968 0.720142C1.32452 1.0383 0 2.76822 0 4.71059V11.7894C0 13.7318 1.32451 15.4617 3.23968 15.7799C4.79686 16.0386 6.37591 16.2294 7.97387 16.3494C8.3468 16.3774 8.66826 16.5966 8.82996 16.9173L11.1128 21.4445C11.2849 21.7858 11.6269 22 12 22C12.3731 22 12.7151 21.7858 12.8872 21.4445L15.17 16.9173C15.3317 16.5966 15.6532 16.3774 16.0261 16.3494C17.6241 16.2294 19.2031 16.0386 20.7603 15.7799C22.6755 15.4617 24 13.7318 24 11.7894V4.71059C24 2.76822 22.6755 1.0383 20.7603 0.720141C17.9074 0.246196 14.9812 0 12 0ZM7.66667 5.5C7.11438 5.5 6.66667 5.96171 6.66667 6.53125C6.66667 7.10079 7.11438 7.5625 7.66667 7.5625H16.3333C16.8856 7.5625 17.3333 7.10079 17.3333 6.53125C17.3333 5.96171 16.8856 5.5 16.3333 5.5H7.66667ZM7.66667 8.9375C7.11438 8.9375 6.66667 9.39921 6.66667 9.96875C6.66667 10.5383 7.11438 11 7.66667 11H12.3333C12.8856 11 13.3333 10.5383 13.3333 9.96875C13.3333 9.39921 12.8856 8.9375 12.3333 8.9375H7.66667Z" fill="#1A1E42" fill-opacity="0.6"/>
</svg>
