<svg width="15" height="16" viewBox="0 0 15 16" fill="none" xmlns="http://www.w3.org/2000/svg">
<path d="M3.19441 12.0795L4.36849 9.14434C4.55569 8.67634 4.836 8.25124 5.19242 7.89482L11.6306 1.45703C12.4014 0.686195 13.6513 0.686197 14.4221 1.45704C15.1929 2.22787 15.1929 3.47766 14.4221 4.2485L7.98388 10.6862C7.62746 11.0427 7.20235 11.323 6.73436 11.5102L3.79917 12.6843C3.41939 12.8362 3.0425 12.4593 3.19441 12.0795Z" fill="url(#paint0_linear_1_20522)"/>
<path d="M1.39573 4.48045C1.39573 3.83808 1.91647 3.31734 2.55884 3.31734H7.44389C7.82931 3.31734 8.14175 3.0049 8.14175 2.61948C8.14175 2.23406 7.82931 1.92161 7.44389 1.92161H2.55884C1.14563 1.92161 0 3.06725 0 4.48045V13.3201C0 14.7333 1.14563 15.8789 2.55884 15.8789H11.3985C12.8117 15.8789 13.9573 14.7333 13.9573 13.3201V8.43502C13.9573 8.0496 13.6448 7.73715 13.2594 7.73715C12.874 7.73715 12.5616 8.0496 12.5616 8.43502V13.3201C12.5616 13.9625 12.0409 14.4832 11.3985 14.4832H2.55884C1.91647 14.4832 1.39573 13.9625 1.39573 13.3201V4.48045Z" fill="url(#paint1_linear_1_20522)"/>
<defs>
<linearGradient id="paint0_linear_1_20522" x1="-3.68956" y1="2.52176" x2="18.3622" y2="5.05946" gradientUnits="userSpaceOnUse">
<stop stop-color="#4D63E9"/>
<stop offset="1" stop-color="#A5CBF2"/>
</linearGradient>
<linearGradient id="paint1_linear_1_20522" x1="-3.68956" y1="2.52176" x2="18.3622" y2="5.05946" gradientUnits="userSpaceOnUse">
<stop stop-color="#4D63E9"/>
<stop offset="1" stop-color="#A5CBF2"/>
</linearGradient>
</defs>
</svg>
