<svg width="42" height="54" viewBox="0 0 42 54" fill="none" xmlns="http://www.w3.org/2000/svg">
<path d="M7.2002 27.5708C7.2002 27.5708 7.64695 21.9143 17.271 21.9143C18.0921 19.7255 17.8746 18.9405 17.8746 18.9405M34.7979 27.5708C34.7979 27.5708 34.3858 21.9143 24.7617 21.9143C23.9406 19.7255 23.999 19 23.999 19M27.2663 9.46593C27.2663 9.46593 25.4919 5.8455 24.1422 5.31738C23.1637 7.1276 19.7879 6.67584 17.8971 6.67584C16.0063 6.67584 14.4364 6.7522 14.1406 9.39276M20.9233 28.3252V48.9916M29.2892 31.4748L27.7098 32.9733H14.3041L12.5454 31.1758M30.4091 35.5592L28.6189 37.258H13.4199L11.4253 35.2188M31.0353 39.6664L29.1256 41.4766H12.923L10.7993 39.3037M29.9811 43.8948L28.2696 45.5173H13.7564L11.853 43.5703M20.9897 50.7289C20.9897 51.8288 21.8715 52.7204 22.9592 52.7204C24.0469 52.7204 24.9287 51.8288 24.9287 50.7289C24.9287 49.629 24.0469 48.7373 22.9592 48.7373C21.8715 48.7373 20.9897 49.629 20.9897 50.7289ZM20.9897 50.7289C20.9897 51.8288 20.108 52.7204 19.0203 52.7204C17.9325 52.7204 17.0508 51.8288 17.0508 50.7289C17.0508 49.629 17.9325 48.7373 19.0203 48.7373C20.108 48.7373 20.9897 49.629 20.9897 50.7289ZM14.8072 13.9932C14.8072 13.9932 15.5466 19.7261 20.9202 19.7261C26.2938 19.7261 26.9639 13.9932 26.9639 13.9932C26.9639 13.9932 28.3797 13.5414 28.3797 11.7312C28.3797 9.921 27.2596 9.46924 27.2596 9.46924C27.2596 9.46924 28.3797 8.56254 28.3797 6.30056C28.3797 4.03858 25.9194 3.05553 25.9194 3.05553C25.9194 3.05553 25.6362 1.16896 24.1355 1.16896C22.6348 1.16896 11.315 0.539043 14.1308 9.3897C12.2054 10.4396 12.8629 13.4619 14.8009 13.99L14.8072 13.9932ZM1.15625 28.3252H40.8416V52.8411H1.15625V28.3252Z" stroke="url(#paint0_linear_1_21750)" stroke-width="1.5" stroke-miterlimit="10" stroke-linecap="round" stroke-linejoin="round"/>
<defs>
<linearGradient id="paint0_linear_1_21750" x1="-8.60507" y1="6.81958" x2="50.0511" y2="12.0028" gradientUnits="userSpaceOnUse">
<stop stop-color="#4D63E9"/>
<stop offset="1" stop-color="#A5CBF2"/>
</linearGradient>
</defs>
</svg>
