<svg width="201" height="57" viewBox="0 0 201 57" fill="none" xmlns="http://www.w3.org/2000/svg">
<g clip-path="url(#clip0_1_8536)">
<path d="M37.8076 0H19.0529C8.53028 0 0 8.55121 0 19.0996V37.9003C0 48.4488 8.53028 57 19.0529 57H37.8076C48.3303 57 56.8605 48.4488 56.8605 37.9003V19.0996C56.8605 8.55121 48.3303 0 37.8076 0Z" fill="url(#paint0_linear_1_8536)"/>
<path d="M150.767 37.029V39.4871H146.291V12.2084H151.162V20.832C151.486 20.5663 151.753 20.321 152.044 20.1115C153.93 18.7419 156.038 18.1696 158.357 18.3433C163.239 18.7087 167.029 22.6692 167.686 27.3144C168.199 30.9223 167.319 34.1979 164.906 36.9728C163.198 38.9352 160.99 39.9572 158.401 40.1284C156.894 40.2281 155.411 40.1003 153.999 39.5024C152.854 39.0169 151.911 38.2606 151.07 37.3587C150.986 37.2692 150.904 37.1798 150.764 37.0316L150.767 37.029ZM162.928 29.2486C162.94 28.2496 162.749 27.2761 162.324 26.3358C160.437 22.1658 154.98 21.5807 152.187 25.1962C150.938 26.8136 150.634 28.6507 151.057 30.6259C151.644 33.3777 153.713 35.4321 156.487 35.6518C158.47 35.8102 160.157 35.1842 161.449 33.6358C162.504 32.371 162.907 30.8686 162.928 29.2461V29.2486Z" fill="white"/>
<path d="M183.946 37.0699V39.4896H179.463V12.2059H184.336V20.8499C184.454 20.7502 184.52 20.694 184.584 20.6353C186.564 18.8952 188.878 18.1619 191.489 18.3433C196.426 18.6857 200.229 22.7049 200.868 27.3578C201.36 30.935 200.491 34.1852 198.111 36.9422C196.387 38.9352 194.157 39.97 191.534 40.1335C190.046 40.2281 188.585 40.0977 187.189 39.5101C186.042 39.0271 185.098 38.2734 184.257 37.3714C184.186 37.2948 184.115 37.2156 184.041 37.1389C184.028 37.1261 184.01 37.1159 183.944 37.0725L183.946 37.0699ZM196.102 29.3815C196.105 28.2138 195.913 27.2505 195.5 26.3358C193.614 22.1658 188.157 21.5807 185.364 25.1962C184.115 26.8136 183.811 28.6507 184.234 30.6259C184.821 33.3777 186.888 35.4321 189.661 35.6544C191.644 35.8128 193.331 35.1868 194.624 33.6384C195.687 32.3659 196.087 30.8533 196.102 29.3841V29.3815Z" fill="white"/>
<path d="M92.2347 31.0551H76.3475C76.475 31.3822 76.5667 31.6811 76.7018 31.9571C78.0986 34.8291 81.8302 36.1066 84.6467 34.6834C85.4751 34.2644 86.1174 33.6435 86.5864 32.8488C86.6858 32.6802 86.7852 32.6087 86.9866 32.6112C88.521 32.6214 90.058 32.6163 91.5924 32.6163H91.9187C91.6918 33.135 91.5185 33.6256 91.2713 34.0753C89.5049 37.2922 86.798 39.2443 83.1734 39.6864C77.4104 40.3865 72.3177 36.5308 71.3925 30.8737C70.7655 27.041 71.7519 23.6555 74.5174 20.8831C76.3068 19.0894 78.5192 18.144 81.04 17.9422C83.8591 17.7173 86.408 18.4379 88.6153 20.2213C90.8736 22.0457 92.1251 24.4475 92.4718 27.3272C92.6145 28.5128 92.5279 29.6881 92.2908 30.8558C92.2781 30.9197 92.2526 30.981 92.2296 31.0577L92.2347 31.0551ZM76.2507 27.0844H87.532C87.2873 25.6817 86.7419 24.4757 85.6357 23.5737C84.741 22.8455 83.6934 22.5133 82.5592 22.4213C79.4062 22.1658 76.9644 23.98 76.2481 27.0819L76.2507 27.0844Z" fill="white"/>
<path d="M138.332 21.6343V19.0256H142.808V39.4922H138.337V36.9933C138.245 37.0699 138.189 37.1108 138.143 37.1594C134.911 40.4913 129.046 41.5286 124.823 37.7522C123.082 36.1961 122.039 34.221 121.545 31.9545C120.997 29.448 121.111 26.9771 122.139 24.606C123.602 21.2255 126.12 19.0894 129.767 18.4481C132.793 17.9141 135.436 18.7956 137.677 20.8882C137.898 21.0952 138.079 21.3431 138.332 21.6318V21.6343ZM126.133 29.1465C126.102 32.0465 127.739 34.4305 130.285 35.3605C132.543 36.1884 135.207 35.4398 136.705 33.5592C138.569 31.2212 138.686 27.7565 136.986 25.2652C135.026 22.3958 130.675 21.9691 128.19 24.3965C126.808 25.7456 126.186 27.4064 126.135 29.1465H126.133Z" fill="white"/>
<path d="M117.235 19H120.176V23.3565H117.258V39.482H112.362V23.3667H109.971V19.0128H112.346V12.2033H117.235V19.0026V19Z" fill="white"/>
<path d="M175.683 39.482H170.822V19.0204H175.683V39.482Z" fill="white"/>
<path d="M106.529 26.6731V30.9938H96.3184V26.6731H106.529Z" fill="white"/>
<path d="M170.816 16.6697V12.2008H175.68V16.6697H170.816Z" fill="white"/>
<path d="M30.237 46.1713H22.7917V33.8837H10.6055V26.4201H22.7917V22.3575C22.7917 16.0028 27.9149 10.8312 34.2132 10.8312H34.825C41.1233 10.8312 46.2465 16.0028 46.2465 22.3575C46.2465 28.7121 41.1233 33.8837 34.825 33.8837H30.237V46.1713ZM30.237 26.4176H34.825C37.017 26.4176 38.8012 24.5958 38.8012 22.3549C38.8012 20.1141 37.017 18.2922 34.825 18.2922H34.2132C32.0212 18.2922 30.237 20.1141 30.237 22.3549V26.4176Z" fill="#87A7EF"/>
<path opacity="0.4" d="M34.8633 10.8312L34.8633 18.3214C36.7129 18.3214 38.7639 19.7464 38.7639 22.2501L46.2542 22.2501C46.2542 15.9441 41.1539 10.8312 34.8633 10.8312Z" fill="url(#paint1_linear_1_8536)"/>
<path d="M22.793 33.8888V41.0892H30.2383V33.8888H22.793Z" fill="url(#paint2_linear_1_8536)"/>
<path d="M30.2383 26.4176V21.4938H22.793V26.4176H30.2383Z" fill="url(#paint3_linear_1_8536)"/>
</g>
<defs>
<linearGradient id="paint0_linear_1_8536" x1="7.17857" y1="8.95714" x2="50.5521" y2="50.8103" gradientUnits="userSpaceOnUse">
<stop stop-color="white"/>
<stop offset="1" stop-color="white" stop-opacity="0.7"/>
</linearGradient>
<linearGradient id="paint1_linear_1_8536" x1="35.763" y1="23.3616" x2="44.6325" y2="16.1953" gradientUnits="userSpaceOnUse">
<stop stop-color="#E6EAFC"/>
<stop offset="1" stop-color="#8AB7F5"/>
</linearGradient>
<linearGradient id="paint2_linear_1_8536" x1="26.5169" y1="41.0892" x2="26.5169" y2="33.8888" gradientUnits="userSpaceOnUse">
<stop stop-color="#749BF4" stop-opacity="0"/>
<stop offset="1" stop-color="#3C68C7" stop-opacity="0.6"/>
</linearGradient>
<linearGradient id="paint3_linear_1_8536" x1="26.6641" y1="20.1536" x2="26.5166" y2="26.4202" gradientUnits="userSpaceOnUse">
<stop stop-color="#749BF4" stop-opacity="0"/>
<stop offset="1" stop-color="#3760BA" stop-opacity="0.6"/>
</linearGradient>
<clipPath id="clip0_1_8536">
<rect width="201" height="57" fill="white"/>
</clipPath>
</defs>
</svg>
