<svg width="43" height="43" viewBox="0 0 43 43" fill="none" xmlns="http://www.w3.org/2000/svg">
<path d="M18.2848 41.4285H2.68911C1.75566 41.4285 1 40.6743 1 39.7427V2.68584C1 1.75419 1.75566 1 2.68911 1H25.2032M25.2032 1L32.3915 8.17434M25.2032 1L25.2036 6.69764C25.2036 7.51204 25.8672 8.17434 26.6832 8.17434L32.3915 8.17434M32.3915 8.17434V24.2501M16.5894 10.3291V16.6225M19.7421 13.4756H13.4365M27.0323 23.8066H12.6494M9.60754 23.8066H5.40381M20.9775 28.3984H12.6494M9.60754 28.3984H5.40381M13.0177 32.9863H12.6494M9.60754 32.9863H5.40381M24.9556 30.7725L30.8579 36.6634M36.9763 41.4285C39.4347 41.4285 41.4277 39.4394 41.4277 36.9857C41.4277 34.5321 39.4347 32.543 36.9763 32.543M36.9763 41.4285C34.5179 41.4285 32.5249 39.4394 32.5249 36.9857C32.5249 34.5321 34.5179 32.543 36.9763 32.543M36.9763 41.4285V32.543M23.1172 13.4508C23.1172 17.049 20.1946 19.966 16.5894 19.966C12.9841 19.966 10.0615 17.049 10.0615 13.4508C10.0615 9.85251 12.9841 6.93555 16.5894 6.93555C20.1946 6.93555 23.1172 9.85251 23.1172 13.4508ZM34.1709 27.465C35.8008 29.0917 35.8003 31.7296 34.1698 33.357L27.549 39.9649C25.9185 41.5923 23.2755 41.5928 21.6456 39.966C20.0157 38.3393 20.0162 35.7014 21.6467 34.074L28.2674 27.4661C29.8979 25.8388 32.541 25.8383 34.1709 27.465Z" stroke="url(#paint0_linear_1_21752)" stroke-width="1.5" stroke-linecap="round" stroke-linejoin="round"/>
<defs>
<linearGradient id="paint0_linear_1_21752" x1="-8.9439" y1="5.42789" x2="50.4889" y2="12.2671" gradientUnits="userSpaceOnUse">
<stop stop-color="#4D63E9"/>
<stop offset="1" stop-color="#A5CBF2"/>
</linearGradient>
</defs>
</svg>
