<svg width="15" height="13" viewBox="0 0 15 13" fill="none" xmlns="http://www.w3.org/2000/svg">
<path d="M2.46163 0.997432C2.67596 0.737978 2.63938 0.353902 2.37992 0.139575C2.12047 -0.0747522 1.73639 -0.0381688 1.52207 0.221286C0.791441 1.10575 0.264336 2.16584 0.0137818 3.32936C-0.0570633 3.65834 0.152204 3.98247 0.481193 4.05332C0.810182 4.12416 1.13431 3.9149 1.20516 3.58591C1.41356 2.61811 1.85216 1.73524 2.46163 0.997432Z" fill="url(#paint0_linear_1_10838)"/>
<path d="M12.802 0.221286C12.5876 -0.0381688 12.2035 -0.0747522 11.9441 0.139575C11.6846 0.353902 11.6481 0.737978 11.8624 0.997432C12.4719 1.73524 12.9105 2.61811 13.1189 3.58591C13.1897 3.9149 13.5138 4.12416 13.8428 4.05332C14.1718 3.98247 14.3811 3.65834 14.3102 3.32936C14.0597 2.16584 13.5326 1.10575 12.802 0.221286Z" fill="url(#paint1_linear_1_10838)"/>
<path fill-rule="evenodd" clip-rule="evenodd" d="M7.16213 0.000694234C4.46988 0.000694234 2.28739 2.18319 2.28739 4.87543C2.28739 6.40824 1.91875 7.85317 1.26584 9.12808C1.17915 9.29734 1.17646 9.49737 1.25856 9.6689C1.34065 9.84043 1.49812 9.9638 1.68432 10.0025C2.55177 10.1826 3.43445 10.3207 4.33014 10.4148C4.46069 11.8642 5.67878 13 7.16215 13C8.64553 13 9.86362 11.8642 9.99417 10.4148C10.8898 10.3207 11.7725 10.1826 12.6399 10.0025C12.8261 9.9638 12.9836 9.84043 13.0657 9.6689C13.1478 9.49737 13.1451 9.29734 13.0584 9.12808C12.4055 7.85317 12.0369 6.40824 12.0369 4.87543C12.0369 2.18319 9.85437 0.000694234 7.16213 0.000694234ZM7.16215 11.7813C6.38851 11.7813 5.74114 11.2406 5.57729 10.5165C6.10171 10.5471 6.63014 10.5626 7.16213 10.5626C7.69414 10.5626 8.22258 10.5471 8.74702 10.5165C8.58317 11.2406 7.9358 11.7813 7.16215 11.7813Z" fill="url(#paint2_linear_1_10838)"/>
<defs>
<linearGradient id="paint0_linear_1_10838" x1="-3.52325" y1="1.42381" x2="17.4758" y2="4.08644" gradientUnits="userSpaceOnUse">
<stop stop-color="#4D63E9"/>
<stop offset="1" stop-color="#A5CBF2"/>
</linearGradient>
<linearGradient id="paint1_linear_1_10838" x1="-3.52325" y1="1.42381" x2="17.4758" y2="4.08644" gradientUnits="userSpaceOnUse">
<stop stop-color="#4D63E9"/>
<stop offset="1" stop-color="#A5CBF2"/>
</linearGradient>
<linearGradient id="paint2_linear_1_10838" x1="-3.52325" y1="1.42381" x2="17.4758" y2="4.08644" gradientUnits="userSpaceOnUse">
<stop stop-color="#4D63E9"/>
<stop offset="1" stop-color="#A5CBF2"/>
</linearGradient>
</defs>
</svg>
