<svg width="19" height="17" viewBox="0 0 19 17" fill="none" xmlns="http://www.w3.org/2000/svg">
<path d="M2.63824 5.35214C1.86898 6.26152 1.28198 7.33001 0.933594 8.50123C2.00967 12.115 5.35755 14.75 9.32088 14.75C10.148 14.75 10.9484 14.6352 11.7068 14.4207M4.51132 3.68969C5.89153 2.77965 7.54472 2.25 9.32161 2.25C13.2849 2.25 16.6328 4.88504 17.7089 8.49877C17.1156 10.4932 15.8304 12.1898 14.1316 13.31M4.51132 3.68969L1.82163 1M4.51132 3.68969L7.55386 6.73223M14.1316 13.31L16.8216 16M14.1316 13.31L11.0894 10.2678M11.0894 10.2678C11.5418 9.81536 11.8216 9.19036 11.8216 8.5C11.8216 7.11929 10.7023 6 9.32163 6C8.63127 6 8.00627 6.27982 7.55386 6.73223M11.0894 10.2678L7.55386 6.73223" stroke="#4D63E9" stroke-width="1.5" stroke-linecap="round" stroke-linejoin="round"/>
</svg>
