<svg width="18" height="16" viewBox="0 0 18 16" fill="none" xmlns="http://www.w3.org/2000/svg">
<g clip-path="url(#clip0_1_20498)">
<path d="M6.04787 6C7.7322 6 9.09184 4.66 9.09184 3C9.09184 1.34 7.7322 0 6.04787 0C4.36355 0 3.00391 1.34 3.00391 3C3.00391 4.66 4.36355 6 6.04787 6Z" fill="#1A1E42" fill-opacity="0.6"/>
<path d="M13.6577 7C15.058 7 16.1944 5.88 16.1944 4.5C16.1944 3.12 15.058 2 13.6577 2C12.2575 2 11.1211 3.12 11.1211 4.5C11.1211 5.88 12.2575 7 13.6577 7Z" fill="#1A1E42" fill-opacity="0.6"/>
<path d="M13.6566 14C13.6566 14 13.5856 14 13.545 14C13.616 13.7 13.6363 13.39 13.5957 13.07C13.4131 11.66 12.8449 10.37 11.9824 9.31C12.4999 9.11 13.0681 9 13.6566 9C15.625 9 17.2992 10.23 17.9486 11.95C18.0907 12.32 17.9283 12.73 17.5833 12.93C16.4368 13.61 15.0974 14 13.6566 14Z" fill="#1A1E42" fill-opacity="0.6"/>
<path d="M6.04717 8C2.94232 8 0.38539 10.29 -0.00017951 13.25C-0.0610589 13.72 0.172312 14.17 0.578174 14.43C2.15089 15.43 4.02801 16 6.03702 16C8.04604 16 9.92316 15.42 11.4959 14.43C11.9017 14.18 12.1351 13.72 12.0742 13.25C11.6988 10.29 9.14187 8 6.03702 8H6.04717ZM9.56803 11.81H8.42147V12.87H7.63003V11.81H6.45303V11.03H7.63003V9.85H8.42147V11.03H9.56803V11.81Z" fill="#1A1E42" fill-opacity="0.6"/>
</g>
<defs>
<clipPath id="clip0_1_20498">
<rect width="18" height="16" fill="white"/>
</clipPath>
</defs>
</svg>
