<svg width="20" height="18" viewBox="0 0 20 18" fill="none" xmlns="http://www.w3.org/2000/svg">
<path d="M6.72282 6.75C8.59083 6.75 10.1051 5.23896 10.1051 3.375C10.1051 1.51104 8.59083 0 6.72282 0C4.85481 0 3.34049 1.51104 3.34049 3.375C3.34049 5.23896 4.85481 6.75 6.72282 6.75Z" fill="#1A1E42" fill-opacity="0.6"/>
<path d="M15.1786 7.875C16.7353 7.875 17.9972 6.6158 17.9972 5.0625C17.9972 3.5092 16.7353 2.25 15.1786 2.25C13.622 2.25 12.36 3.5092 12.36 5.0625C12.36 6.6158 13.622 7.875 15.1786 7.875Z" fill="#1A1E42" fill-opacity="0.6"/>
<path d="M0.651854 16.2315C0.203916 15.9453 -0.0555401 15.4362 0.0100796 14.9095C0.4251 11.5785 3.27221 9 6.72271 9C10.1732 9 13.0203 11.5778 13.4353 14.9087C13.501 15.4354 13.2415 15.9445 12.7936 16.2307C11.0412 17.3503 8.9579 18 6.72271 18C4.48752 18 2.40425 17.351 0.651854 16.2315Z" fill="#1A1E42" fill-opacity="0.6"/>
<path d="M15.1787 15.75C15.1389 15.75 15.0991 15.7497 15.0595 15.7492C15.137 15.4153 15.1586 15.0621 15.1135 14.7005C14.9158 13.1133 14.2768 11.6629 13.3229 10.4756C13.8985 10.2493 14.5256 10.125 15.1818 10.125C17.3688 10.125 19.2325 11.5057 19.9454 13.4412C20.0986 13.8573 19.919 14.3146 19.5386 14.5434C18.2655 15.3094 16.7737 15.75 15.1787 15.75Z" fill="#1A1E42" fill-opacity="0.6"/>
</svg>
