<svg width="10" height="10" viewBox="0 0 10 10" fill="none" xmlns="http://www.w3.org/2000/svg">
<path fill-rule="evenodd" clip-rule="evenodd" d="M0 1.55844C0 0.697738 0.697738 0 1.55844 0H2.27097C2.71792 0 3.10752 0.304186 3.21592 0.73779L3.79036 3.03555C3.88541 3.41574 3.74334 3.81587 3.42983 4.051L2.75782 4.55501C2.68804 4.60735 2.67287 4.68399 2.69247 4.7375C3.28234 6.34779 3.65222 6.71766 5.2625 7.30753C5.31601 7.32713 5.39265 7.31196 5.44499 7.24218L5.949 6.57017C6.18413 6.25666 6.58426 6.11459 6.96445 6.20964L9.26221 6.78408C9.69582 6.89248 10 7.28208 10 7.72903V8.44156C10 9.30226 9.30226 10 8.44156 10H7.27273C2.75403 10 0 7.24597 0 2.72727V1.55844Z" fill="#5D76EB"/>
</svg>
