<svg width="38" height="44" viewBox="0 0 38 44" fill="none" xmlns="http://www.w3.org/2000/svg">
<path d="M12.4545 22H20.6364M12.4545 28.4615H20.6364M12.4545 34.9231H20.6364M27.1818 36.5385H32.0909C34.8021 36.5385 37 34.3688 37 31.6923V9.31001C37 6.86543 35.1564 4.7911 32.6885 4.5889C31.8741 4.52217 31.057 4.46464 30.2374 4.41641M17.5808 4.41641C17.4396 4.86834 17.3636 5.34849 17.3636 5.84615C17.3636 6.73831 18.0963 7.46154 19 7.46154H28.8182C29.7219 7.46154 30.4545 6.73831 30.4545 5.84615C30.4545 5.34849 30.3786 4.86834 30.2374 4.41641M17.5808 4.41641C18.1987 2.43784 20.0656 1 22.2727 1H25.5455C27.7525 1 29.6194 2.43784 30.2374 4.41641M17.5808 4.41641C16.7612 4.46464 15.9441 4.52217 15.1296 4.5889C12.6618 4.7911 10.8182 6.86544 10.8182 9.31001V13.9231M10.8182 13.9231H3.45455C2.09894 13.9231 1 15.0079 1 16.3462V40.5769C1 41.9152 2.09894 43 3.45455 43H24.7273C26.0829 43 27.1818 41.9152 27.1818 40.5769V16.3462C27.1818 15.0079 26.0829 13.9231 24.7273 13.9231H10.8182ZM7.54545 22H7.56182V22.0162H7.54545V22ZM7.54545 28.4615H7.56182V28.4777H7.54545V28.4615ZM7.54545 34.9231H7.56182V34.9392H7.54545V34.9231Z" stroke="white" stroke-width="1.5" stroke-linecap="round" stroke-linejoin="round"/>
</svg>
