<svg width="50" height="49" viewBox="0 0 50 49" fill="none" xmlns="http://www.w3.org/2000/svg">
<path d="M8.77057 34.4938C8.77057 34.4938 9.32956 27.4454 21.3713 27.4454M21.3713 27.4454C22.3987 24.7181 22.1192 23.1205 22.1192 23.1205M21.3713 27.4454L26.1857 32.829L30.7481 27.4456M43.3014 34.4938C43.3014 34.4938 42.7857 27.4454 30.744 27.4454C29.7165 24.7181 29.996 23.1205 29.996 23.1205M33.8775 11.3548C33.8775 11.3548 35.2789 11.9177 35.2789 14.1733C35.2789 15.6401 34.527 16.3932 34.0034 16.7381C33.6964 16.9403 33.472 17.2416 33.3933 17.5984C33.0114 19.3228 31.3502 24.1393 25.9376 24.1393C20.5249 24.1393 18.8716 19.5091 18.4307 17.7054C18.3323 17.305 18.0764 16.9601 17.7142 16.7698L17.7182 16.7619C15.7499 15.7193 15.2421 12.4568 17.4505 11.2557C13.9273 0.227278 28.0908 1.01219 29.9685 1.01219C31.8462 1.01219 32.2005 3.36295 32.2005 3.36295C32.2005 3.36295 35.2789 4.58789 35.2789 7.40643C35.2789 10.225 33.8775 11.3548 33.8775 11.3548ZM33.8775 11.3548C33.8775 11.3548 31.6573 6.84366 29.9686 6.1856C28.7443 8.44123 24.5205 7.87831 22.1547 7.87831C19.7888 7.87831 17.8245 7.97345 17.4545 11.2637M33.6453 27.7626V32.8288M19.0251 27.7626V32.8288M36.1134 41.9225H37.2393V36.3013C37.2393 34.2835 35.6174 32.6503 33.6137 32.6503C31.6101 32.6503 29.9882 34.2835 29.9882 36.3013V41.9225H31.2204M36.8337 17.0352H41.6205C43.3329 17.0352 44.7224 18.3276 44.7224 19.9212V43.0602M5.92852 43.7301V19.9212C5.92852 18.3276 7.3181 17.0352 9.03047 17.0352H14.5416M37.9596 18.974H41.8686C42.4315 18.974 42.8842 19.4338 42.8842 19.9967V23.1245M12.8371 18.974H8.92812C8.3652 18.974 7.9125 19.4338 7.9125 19.9967V23.1245M20.718 34.6087C20.718 35.5918 19.9266 36.3887 18.9505 36.3887C17.9743 36.3887 17.183 35.5918 17.183 34.6087C17.183 33.6257 17.9743 32.8288 18.9505 32.8288C19.9266 32.8288 20.718 33.6257 20.718 34.6087ZM30.748 44.8247C30.748 45.3083 30.3583 45.7008 29.8781 45.7008H20.1274C19.6471 45.7008 19.2574 45.3083 19.2574 44.8247H1C1 46.5769 2.4132 48 4.15313 48H45.8484C47.5883 48 49.0015 46.5769 49.0015 44.8247H30.7441H30.748Z" stroke="url(#paint0_linear_1_21754)" stroke-width="1.5" stroke-linecap="round" stroke-linejoin="round"/>
<defs>
<linearGradient id="paint0_linear_1_21754" x1="-10.8068" y1="6.14762" x2="59.7206" y2="14.4367" gradientUnits="userSpaceOnUse">
<stop stop-color="#4D63E9"/>
<stop offset="1" stop-color="#A5CBF2"/>
</linearGradient>
</defs>
</svg>
