<svg width="18" height="12" viewBox="0 0 18 12" fill="none" xmlns="http://www.w3.org/2000/svg">
<path d="M2.25 0C1.00736 0 0 1.00736 0 2.25V9.75C0 10.9926 1.00736 12 2.25 12H9.75C10.9926 12 12 10.9926 12 9.75V2.25C12 1.00736 10.9926 0 9.75 0H2.25Z" fill="#1A1E42" fill-opacity="0.6"/>
<path d="M18 0.750022C18 0.446675 17.8173 0.173198 17.537 0.0571124C17.2568 -0.0589734 16.9342 0.00519343 16.7197 0.219692L13.7197 3.21969C13.579 3.36034 13.5 3.55111 13.5 3.75002V8.25002C13.5 8.44893 13.579 8.6397 13.7197 8.78035L16.7197 11.7804C16.9342 11.9949 17.2568 12.059 17.537 11.9429C17.8173 11.8268 18 11.5534 18 11.25V0.750022Z" fill="#1A1E42" fill-opacity="0.6"/>
</svg>
